<?xml version="1.0" encoding="UTF-8"?><svg id="uuid-00b1a168-c292-471c-97a0-b074fdbb4e1f" xmlns="http://www.w3.org/2000/svg" viewBox="0 0 218.35256 200"><g id="uuid-d2e11ce2-5dcd-4ed5-9184-9c4305443c88"><g id="uuid-86cdc2cc-f7a7-4318-b83f-756a3550e109"><path d="M90.60402,152.61552c-3.40767-2.05703-11.28983-6.13648-21.73331-5.47384-7.62605.48388-13.42867,3.29398-16.68604,5.21994-.10736-7.08089,2.97902-20.47468,6.88501-25.871,1.57083-2.17018,3.40396-3.8791,5.35803-5.56221l8.54364-7.35896c10.94379-9.42631,16.27312-24.50999,16.45386-39.76832l.18756-15.83379c.10017-8.45681,1.58009-16.59162,3.56183-24.83744,10.49216-3.58417,21.60944-3.71704,32.11118.05474,1.9967,8.34576,3.15448,16.69094,3.49149,25.30935l.1517,15.04457c.44827,14.65412,5.24524,30.14184,15.76535,39.3075l9.70547,8.45587c2.25034,1.96062,4.20663,3.98369,5.96863,6.50321,3.20239,5.2317,5.65778,15.39078,5.54156,22.00429-11.89117,2.23128-30.08682-5.81604-36.26199-1.05199-10.41266,3.00543-14.71132,12.26905-17.39047,20.33736-2.92756,8.81642-5.61846-8.36714-21.65351-16.47929ZM108.38278,41.75434c-3.35483.54429-5.3876,4.00716-4.89769,7.37101.50856,3.49187,3.42324,5.86721,6.45705,5.37066,3.19016-.52214,5.43129-3.72032,4.92243-7.34363-.46095-3.28215-3.19881-5.93067-6.48178-5.39804Z"/><path d="M186.07112,109.41143c7.15758-.73602,13.32569-2.89205,19.68753-7.07758-3.6346,8.48864-9.00347,14.92054-15.84237,18.51455-8.69651,4.31637-14.27155,3.86581-23.33982,3.46694,5.75993,3.01779,11.52469,4.16906,17.80443,4.53163l-4.73795,3.56331c-4.77868,3.04569-9.30157,4.6297-14.76393,4.53576-1.90137-6.85986-5.12356-12.76781-9.6681-17.09135l-7.82752-6.20027c-2.03663-1.99758-3.57906-4.40251-5.03083-7.11277,1.39542-11.37732,2.80572-22.40311,10.07752-29.65143,2.82759-2.81846,5.74442-5.17655,9.00192-7.15164l12.77469-7.74555c6.28935-3.81336,12.35591-7.63616,18.25137-12.35967,14.00598-11.22174,15.81787-25.59077,20.83931-46.17536,2.67534,14.38178,7.30957,29.91686,2.5221,43.39079-4.15322,11.68888-8.33856,20.61272-16.85443,27.33224l-10.24626,7.18574-10.03227,6.3924c-4.24051,2.70199-8.17983,5.67431-11.95894,9.42112l5.41915-2.96078,18.96391-9.03462c12.64575-6.02458,14.27333-7.32441,19.70327-14.9809l7.53866-15.41837c-.79666,8.22736-.22184,15.41837-2.51987,23.41561-2.49923,8.69744-5.25808,14.44468-11.68684,18.86702-4.63777,3.19032-9.44478,5.36657-14.61961,6.77257l-12.92646,3.51211c-4.20381,1.14217-8.21101,2.72778-11.99229,5.37257l12.29344-2.00677,9.17018-1.3073Z"/><path d="M119.15988,188.49265c.01273-3.08942.05729-5.90263-1.62917-8.72738-.15539,6.33477-2.55301,10.80919-6.29323,16.37255l-2.59653,3.86219-1.79632-2.95055-4.06592-6.56119c-1.83129-3.41373-2.61367-6.93065-2.88071-10.62459-1.68404,2.72549-1.59235,5.44579-1.65632,8.44949-6.30476-8.43943-7.76361-19.39097,2.13238-26.07498-2.5195,3.86547-3.20136,8.01162-1.36621,12.16152.78818-2.20174,2.07126-4.24509,4.05049-6.05109-.47847,3.39124.02838,6.5624,1.87129,9.49767l3.78569,6.02962,3.90502-6.13282c1.84135-2.89183,2.32019-6.0512,1.83795-9.39412,1.94202,1.80318,3.18971,3.88062,4.04784,6.05802,1.23259-2.85768,1.31999-5.77561.32573-8.61289l-1.4768-3.41401c9.77839,6.72527,8.15442,17.84533,1.80484,26.11259Z"/><path d="M108.10622,27.90369c-5.02064.1149-9.53285,1.02809-14.44389,2.41459,3.19105-11.50995,7.83402-21.2903,15.06696-30.31828,2.79493,3.31454,5.03481,6.66598,7.19685,10.42628,3.43143,6.20375,6.06433,12.71746,7.94711,19.9346-5.21522-1.57033-10.26324-2.54393-15.76703-2.45719Z"/><path d="M32.28144,109.41143c-7.15758-.73602-13.32569-2.89205-19.68753-7.07758,3.6346,8.48864,9.00347,14.92054,15.84237,18.51455,8.69651,4.31637,14.27155,3.86581,23.33982,3.46694-5.75993,3.01779-11.52469,4.16906-17.80443,4.53163l4.73795,3.56331c4.77868,3.04569,9.30157,4.6297,14.76393,4.53576,1.90137-6.85986,5.12356-12.76781,9.6681-17.09135l7.82752-6.20027c2.03663-1.99758,3.57906-4.40251,5.03083-7.11277-1.39542-11.37732-2.80572-22.40311-10.07752-29.65143-2.82759-2.81846-5.74442-5.17655-9.00192-7.15164l-12.77469-7.74555c-6.28935-3.81336-12.35591-7.63616-18.25137-12.35967C11.88851,38.41163,10.07662,24.0426,5.05519,3.458c-2.67534,14.38178-7.30957,29.91686-2.5221,43.39079,4.15322,11.68888,8.33856,20.61272,16.85443,27.33224l10.24626,7.18574,10.03227,6.3924c4.24051,2.70199,8.17983,5.67431,11.95894,9.42112l-5.41915-2.96078-18.96391-9.03462c-12.64575-6.02458-14.27333-7.32441-19.70327-14.9809L0,54.78563c.79666,8.22736.22184,15.41837,2.51987,23.41561,2.49923,8.69744,5.25808,14.44468,11.68684,18.86702,4.63777,3.19032,9.44478,5.36657,14.61961,6.77257l12.92646,3.51211c4.20381,1.14217,8.21101,2.72778,11.99229,5.37257l-12.29344-2.00677-9.17018-1.3073Z"/></g></g></svg>