<?xml version="1.0" encoding="UTF-8"?><svg id="uuid-fec3fae2-3e91-495c-876d-66038399dab6" xmlns="http://www.w3.org/2000/svg" viewBox="0 0 218.35256 179.06427"><g id="uuid-1e297dff-e19c-4412-b3eb-0f3ea5e0a138"><g id="uuid-32561f46-8e24-4c5b-bd92-b7f4289b496e"><path d="M90.60402,136.63993c-3.40767-1.84171-11.28983-5.49413-21.73331-4.90085-7.62605.43323-13.42867,2.94917-16.68604,4.67352-.10736-6.33968,2.97902-18.33142,6.88501-23.16286,1.57083-1.94301,3.40396-3.47304,5.35803-4.97997l8.54364-6.58864c10.94379-8.43958,16.27312-21.94432,16.45386-35.60542l.18756-14.17633c.10017-7.57156,1.58009-14.85483,3.56183-22.23749,10.49216-3.20898,21.60944-3.32794,32.11118.04901,1.9967,7.47214,3.15448,14.94376,3.49149,22.66l.1517,13.46973c.44827,13.12015,5.24524,26.98663,15.76535,35.19284l9.70547,7.57072c2.25034,1.75539,4.20663,3.56668,5.96863,5.82246,3.20239,4.68405,5.65778,13.77969,5.54156,19.70091-11.89117,1.99771-30.08682-5.20723-36.26199-.94187-10.41266,2.69083-14.71132,10.98474-17.39047,18.20848-2.92756,7.89353-5.61846-7.49128-21.65351-14.75426ZM108.38278,37.38355c-3.35483.48731-5.3876,3.5877-4.89769,6.59942.50856,3.12634,3.42324,5.25303,6.45705,4.80847,3.19016-.46748,5.43129-3.33088,4.92243-6.57491-.46095-2.93858-3.19881-5.30985-6.48178-4.83298Z"/><path d="M186.07112,97.95839c7.15758-.65897,13.32569-2.58932,19.68753-6.3367-3.6346,7.60006-9.00347,13.35867-15.84237,16.57647-8.69651,3.86454-14.27155,3.46115-23.33982,3.10402,5.75993,2.70189,11.52469,3.73265,17.80443,4.05726l-4.73795,3.19031c-4.77868,2.72687-9.30157,4.14507-14.76393,4.06097-1.90137-6.14178-5.12356-11.43129-9.6681-15.30225l-7.82752-5.55123c-2.03663-1.78847-3.57906-3.94166-5.03083-6.36821,1.39542-10.18636,2.80572-20.05798,10.07752-26.54756,2.82759-2.52343,5.74442-4.63468,9.00192-6.40301l12.77469-6.93476c6.28935-3.41418,12.35591-6.83682,18.25137-11.06587,14.00598-10.04706,15.81787-22.91196,20.83931-41.34179,2.67534,12.87631,7.30957,26.7852,2.5221,38.8487-4.15322,10.4653-8.33856,18.45501-16.85443,24.47114l-10.24626,6.43354-10.03227,5.72325c-4.24051,2.41915-8.17983,5.08033-11.95894,8.43493l5.41915-2.65085,18.96391-8.08889c12.64575-5.39394,14.27333-6.5577,19.70327-13.41272l7.53866-13.80439c-.79666,7.36613-.22184,13.80439-2.51987,20.96449-2.49923,7.787-5.25808,12.93263-11.68684,16.89205-4.63777,2.85636-9.44478,4.8048-14.61961,6.06362l-12.92646,3.14447c-4.20381,1.02261-8.21101,2.44224-11.99229,4.81018l12.29344-1.79671,9.17018-1.17045Z"/><path d="M119.15988,168.76149c.01273-2.76603.05729-5.28475-1.62917-7.81381-.15539,5.67165-2.55301,9.6777-6.29323,14.65869l-2.59653,3.4579-1.79632-2.64169-4.06592-5.87438c-1.83129-3.05638-2.61367-6.20516-2.88071-9.51242-1.68404,2.44019-1.59235,4.87573-1.65632,7.565-6.30476-7.556-7.76361-17.36115,2.13238-23.34549-2.5195,3.46084-3.20136,7.17298-1.36621,10.88847.78818-1.97127,2.07126-3.80072,4.05049-5.41767-.47847,3.03625.02838,5.87545,1.87129,8.50346l3.78569,5.39844,3.90502-5.49085c1.84135-2.58912,2.32019-5.41777,1.83795-8.41075,1.94202,1.61442,3.18971,3.4744,4.04784,5.42387,1.23259-2.55854,1.31999-5.17103.32573-7.7113l-1.4768-3.05664c9.77839,6.02128,8.15442,15.97731,1.80484,23.37916Z"/><path d="M108.10622,24.98277c-5.02064.10287-9.53285.92047-14.44389,2.16184,3.19105-10.30511,7.83402-19.06166,15.06696-27.14461,2.79493,2.96758,5.03481,5.9682,7.19685,9.33488,3.43143,5.55435,6.06433,11.38621,7.94711,17.84787-5.21522-1.40595-10.26324-2.27764-15.76703-2.19998Z"/><path d="M32.28144,97.95839c-7.15758-.65897-13.32569-2.58932-19.68753-6.3367,3.6346,7.60006,9.00347,13.35867,15.84237,16.57647,8.69651,3.86454,14.27155,3.46115,23.33982,3.10402-5.75993,2.70189-11.52469,3.73265-17.80443,4.05726l4.73795,3.19031c4.77868,2.72687,9.30157,4.14507,14.76393,4.06097,1.90137-6.14178,5.12356-11.43129,9.6681-15.30225l7.82752-5.55123c2.03663-1.78847,3.57906-3.94166,5.03083-6.36821-1.39542-10.18636-2.80572-20.05798-10.07752-26.54756-2.82759-2.52343-5.74442-4.63468-9.00192-6.40301l-12.77469-6.93476c-6.28935-3.41418-12.35591-6.83682-18.25137-11.06587C11.88851,34.39075,10.07662,21.52585,5.05519,3.09602,2.37984,15.97234-2.25439,29.88123,2.53309,41.94473c4.15322,10.4653,8.33856,18.45501,16.85443,24.47114l10.24626,6.43354,10.03227,5.72325c4.24051,2.41915,8.17983,5.08033,11.95894,8.43493l-5.41915-2.65085-18.96391-8.08889c-12.64575-5.39394-14.27333-6.5577-19.70327-13.41272L0,49.05075c.79666,7.36613.22184,13.80439,2.51987,20.96449,2.49923,7.787,5.25808,12.93263,11.68684,16.89205,4.63777,2.85636,9.44478,4.8048,14.61961,6.06362l12.92646,3.14447c4.20381,1.02261,8.21101,2.44224,11.99229,4.81018l-12.29344-1.79671-9.17018-1.17045Z"/></g></g></svg>